<svg xmlns="http://www.w3.org/2000/svg" xmlns:xlink="http://www.w3.org/1999/xlink" height="800" width="1200" version="1.0" viewBox="-7.158735 -11.25585 62.04237 67.5351"><defs><linearGradient id="h"><stop offset="0"/><stop offset="1" stop-opacity="0"/></linearGradient><linearGradient id="f"><stop offset="0" stop-color="#f57900"/><stop offset="1" stop-color="#ffc286"/></linearGradient><linearGradient id="g"><stop offset="0" stop-color="#ce5c00"/><stop offset="1" stop-color="#ed6a00"/></linearGradient><linearGradient id="e"><stop offset="0" stop-color="#1f2325"/><stop offset="1" stop-color="#3a4244"/></linearGradient><linearGradient id="d"><stop offset="0" stop-color="#61635f"/><stop offset="1" stop-color="#999b96"/></linearGradient><linearGradient id="c"><stop offset="0" stop-color="#fff" stop-opacity=".9381"/><stop offset="1" stop-color="#fff" stop-opacity=".6289"/></linearGradient><linearGradient id="b"><stop offset="0" stop-color="#73d216"/><stop offset="1" stop-color="#adf06b"/></linearGradient><linearGradient id="a"><stop offset="0" stop-color="#4e9a06"/><stop offset="1" stop-color="#2e5b03"/></linearGradient><linearGradient gradientTransform="matrix(2.25 0 0 2.28115 -6.875 -3.484)" gradientUnits="userSpaceOnUse" y2="7.2678" x2="7.5" y1="3.3345" x1="6.1932" id="u" xlink:href="#a"/><linearGradient gradientTransform="matrix(2.25 0 0 2.28115 -6.875 -3.484)" gradientUnits="userSpaceOnUse" y2="3.3345" x2="6.1932" y1="7.2678" x1="7.5" id="t" xlink:href="#b"/><linearGradient gradientTransform="matrix(.77778 0 0 .81108 -1.6667 -1.279)" gradientUnits="userSpaceOnUse" y2="12.75" x2="20" y1="12.75" x1="10" id="v" xlink:href="#c"/><linearGradient gradientTransform="matrix(1.02633 0 0 1.13793 1.5531 -2.1724)" gradientUnits="userSpaceOnUse" y2="8" x2="6.5" y1="45.5" x1="20.9375" id="o" xlink:href="#d"/><linearGradient gradientTransform="matrix(1.02633 0 0 1.13793 1.5531 -2.1724)" gradientUnits="userSpaceOnUse" y2="8" x2="6.5" y1="45.5" x1="20.9375" id="p" xlink:href="#e"/><linearGradient gradientTransform="matrix(1.02633 0 0 1.14393 1.5531 -2.3673)" gradientUnits="userSpaceOnUse" y2="24" x2="46.0625" y1="24" x1="2" id="q" xlink:href="#c"/><linearGradient y2="11.6648" x2="22.8569" y1="31.5" x1="28.5495" gradientTransform="matrix(.75835 0 0 .82325 4.3091 5.5325)" gradientUnits="userSpaceOnUse" id="j" xlink:href="#f"/><linearGradient y2="11.6648" x2="22.8569" y1="31.5" x1="28.5495" gradientTransform="matrix(.75835 0 0 .82325 4.3091 5.5325)" gradientUnits="userSpaceOnUse" id="k" xlink:href="#g"/><linearGradient y2="26.5" x2="38.5" y1="26.5" x1="21.5" gradientTransform="matrix(.8365 0 0 .95206 -.7077 1.8482)" gradientUnits="userSpaceOnUse" id="l" xlink:href="#c"/><linearGradient y2="17.7157" x2="5.9831" y1="41.9088" x1="13.0694" gradientUnits="userSpaceOnUse" id="r" xlink:href="#d"/><linearGradient y2="17.7157" x2="5.9831" y1="41.9088" x1="13.0694" gradientUnits="userSpaceOnUse" id="s" xlink:href="#e"/><linearGradient y2="37" x2="13.5" y1="12.625" x1="5.5" gradientTransform="matrix(1 0 0 1.04545 0 -.659)" gradientUnits="userSpaceOnUse" id="w" xlink:href="#c"/><radialGradient gradientUnits="userSpaceOnUse" gradientTransform="matrix(1 0 0 .28358 0 23.2836)" r="16.75" fy="32.5" fx="1.75" cy="32.5" cx="1.75" id="n" xlink:href="#h"/><radialGradient r="16.75" fy="32.5" fx="1.75" cy="32.5" cx="1.75" gradientTransform="matrix(1 0 0 .28358 0 23.2836)" gradientUnits="userSpaceOnUse" id="m" xlink:href="#h"/><radialGradient r="16.75" fy="32.5" fx="1.75" cy="32.5" cx="1.75" gradientTransform="matrix(1 0 0 .28358 0 23.2836)" gradientUnits="userSpaceOnUse" id="i" xlink:href="#h"/></defs><g transform="translate(0 -2.9766)"><ellipse ry="4.75" rx="16.75" cy="32.5" cx="1.75" transform="matrix(.59701 0 0 .42105 23.8668 18.3435)" opacity=".3239" fill="url(#i)"/><path d="M25.2797 14.5277l-8.5378 16.9676 17.4822.0324zm-.168 6.436l4.1163 7.8162-7.9625-.0324z" fill="url(#j)" stroke="url(#k)"/><path d="M25.3195 16.9027l-6.9079 13.654 14.0803-.087zm-.2328 1.8304L30.9554 29.73l-11.2743-.1005z" opacity=".5426" fill="none" stroke="url(#l)"/><ellipse ry="4.75" rx="16.75" cy="32.5" cx="1.75" transform="matrix(.59701 0 0 1 10.9552 10.75)" opacity=".1761" fill="url(#m)"/><ellipse ry="4.75" rx="16.75" cy="32.5" cx="1.75" transform="matrix(1.19403 0 0 .73684 17.9104 15.5526)" opacity=".3125" fill="url(#n)"/><path d="M3.0912 7.5v4h23.1326c4.8202.0132 9.148 1.5269 12.1931 3.8437 3.0586 2.3271 4.7958 5.3633 4.7958 8.6563s-1.7372 6.3292-4.7958 8.6562C35.3584 34.9834 31.007 36.5 26.1611 36.5H3.0285v4H26.161c5.674 0 10.8604-1.7343 14.7007-4.6562 3.8404-2.922 6.363-7.1328 6.363-11.8438s-2.5226-8.9218-6.363-11.8437C37.0357 9.2452 31.873 7.5129 26.2237 7.5H3.0912z" fill="url(#o)" stroke="url(#p)"/><path d="M4.1335 8.5l-.0522 1.9984s.096.0518 23.233.0518c4.8201.0133 9.915 2.4127 12.8346 4.959 3.1547 2.7545 4.194 5.9649 4.0221 9.5244-.1438 2.9542-2.9168 6.9847-4.856 8.2692-2.6037 1.7248-7.2787 4.0672-12.007 4.059-8.3347-.0146-17.349.1347-20.2412.1347H4.6241c-.1807 0-.4847.004-.53.004h-.0313L4.0548 39.5s.2525.0766 23.3892-.0425c4.268-.0221 8.8984-1.4575 12.7388-4.3948 3.8404-2.9373 6.0157-6.6699 6.0799-10.1188.088-4.7348-1.8432-8.5105-5.1122-11.285-3.3083-2.8077-8.251-5.1147-13.9004-5.1277C15.6816 8.5312 9.9575 8.5 7.0654 8.5H4.1335z" opacity=".375" fill="none" stroke="url(#q)"/><g stroke-width=".9552"><path d="M7.5 13.5h5v24h1.5342l-3.9717 5.0625-4.094-5.0698L7.5 37.5z" fill="url(#r)" stroke="url(#s)" transform="matrix(1 0 0 1.09594 2 -1.4317)"/><path fill="url(#t)" stroke="url(#u)" d="M5.5 4.5h9v9.1246h-9z" transform="matrix(1 0 0 1.09594 2 -1.4317)"/><path d="M6.5 5.4125h7v7.2996h-7z" opacity=".5341" fill="none" stroke="url(#v)" transform="matrix(1 0 0 1.09594 2 -1.4317)"/><path d="M8.5 14.5h3v24h.4844l-1.9219 2.4531L8.0469 38.5H8.5z" opacity=".375" fill="none" stroke="url(#w)" transform="matrix(1 0 0 1.09594 2 -1.4317)"/></g></g></svg>